<svg version="1.1" id="Layer_1" xmlns="http://www.w3.org/2000/svg" xmlns:xlink="http://www.w3.org/1999/xlink" x="0px" y="0px"
	 width="100%" viewBox="0 0 64 64" enable-background="new 0 0 64 64" xml:space="preserve">
<path fill="#000000" opacity="1.000000" stroke="none" 
	d="
M35.000000,65.000000 
	C23.355185,65.000000 12.210369,65.000000 1.032777,65.000000 
	C1.032777,43.730305 1.032777,22.460548 1.032777,1.095395 
	C22.227612,1.095395 43.455791,1.095395 64.841988,1.095395 
	C64.841988,22.332405 64.841988,43.666084 64.841988,65.000000 
	C55.128159,65.000000 45.314079,65.000000 35.000000,65.000000 
M45.700100,51.953354 
	C48.327320,50.845829 51.948269,50.469181 53.399170,48.496483 
	C58.130829,42.063145 52.426846,37.916420 47.939346,33.662926 
	C50.656860,32.999012 52.264080,32.606350 53.871296,32.213692 
	C53.784966,31.542393 53.698635,30.871092 53.612305,30.199793 
	C50.981976,30.424538 48.351643,30.649282 45.743103,30.872166 
	C42.751774,21.895182 37.072479,17.480919 30.008480,19.332249 
	C27.256618,20.053453 23.509804,21.537447 22.578199,23.694241 
	C20.648623,28.161467 20.301060,33.312023 19.259649,38.392948 
	C17.889574,38.999660 15.645874,39.993244 13.402174,40.986828 
	C13.552178,41.517857 13.702183,42.048882 13.852187,42.579910 
	C15.753413,42.374638 17.654640,42.169369 19.556934,41.973988 
	C21.172760,49.534245 24.636219,52.452663 30.802511,50.946751 
	C35.494560,51.275879 40.186607,51.605007 45.700100,51.953354 
z"/>
<path fill="#D6D9DA" opacity="1.000000" stroke="none" 
	d="
M44.878654,51.934135 
	C40.186607,51.605007 35.494560,51.275879 30.358982,50.536015 
	C29.549139,49.822506 29.211952,49.304089 28.812037,49.250065 
	C24.459019,48.662064 22.057823,45.986237 22.476034,41.838364 
	C22.890238,37.730274 25.622543,35.500092 30.111105,35.744865 
	C31.062559,35.796753 32.079033,34.656349 33.038094,34.035851 
	C33.010639,34.006416 33.075108,34.054256 33.448593,33.993118 
	C39.920551,30.384460 42.892666,31.046833 47.151608,36.701309 
	C47.899105,37.693741 49.101742,38.354931 50.128265,39.123577 
	C54.080585,42.083019 53.559574,46.742302 49.119404,48.984341 
	C47.597393,49.752872 46.286175,50.938869 44.878654,51.934135 
z"/>
<path fill="#2A1F19" opacity="1.000000" stroke="none" 
	d="
M45.289375,51.943745 
	C46.286175,50.938869 47.597393,49.752872 49.119404,48.984341 
	C53.559574,46.742302 54.080585,42.083019 50.128265,39.123577 
	C49.101742,38.354931 47.899105,37.693741 47.151608,36.701309 
	C42.892666,31.046833 39.920551,30.384460 33.069798,33.753105 
	C35.416443,31.914139 38.515366,30.254047 41.989632,28.392889 
	C41.163292,24.806076 38.350151,22.439770 34.066788,21.698101 
	C29.941439,20.983791 26.440634,22.351219 24.126574,25.742413 
	C22.190376,28.579859 20.735821,31.795406 22.375580,34.065281 
	C26.655014,34.065281 29.860281,34.065281 33.065548,34.065281 
	C32.079033,34.656349 31.062559,35.796753 30.111105,35.744865 
	C25.622543,35.500092 22.890238,37.730274 22.476034,41.838364 
	C22.057823,45.986237 24.459019,48.662064 28.812037,49.250065 
	C29.211952,49.304089 29.549139,49.822506 29.987745,50.474758 
	C24.636219,52.452663 21.172760,49.534245 19.556400,41.969040 
	C17.654640,42.169369 15.753413,42.374638 13.852187,42.579910 
	C13.702183,42.048882 13.552178,41.517857 13.402174,40.986828 
	C15.645874,39.993244 17.889574,38.999660 19.259649,38.392948 
	C20.301060,33.312023 20.648623,28.161467 22.578199,23.694241 
	C23.509804,21.537447 27.256618,20.053453 30.008480,19.332249 
	C37.072479,17.480919 42.751774,21.895182 45.743103,30.872166 
	C48.351643,30.649282 50.981976,30.424538 53.612305,30.199793 
	C53.698635,30.871092 53.784966,31.542393 53.871296,32.213692 
	C52.264080,32.606350 50.656860,32.999012 47.939346,33.662926 
	C52.426846,37.916420 58.130829,42.063145 53.399170,48.496483 
	C51.948269,50.469181 48.327320,50.845829 45.289375,51.943745 
z"/>
<path fill="#F0B02C" opacity="1.000000" stroke="none" 
	d="
M33.038094,34.035851 
	C29.860281,34.065281 26.655014,34.065281 22.375580,34.065281 
	C20.735821,31.795406 22.190376,28.579859 24.126574,25.742413 
	C26.440634,22.351219 29.941439,20.983791 34.066788,21.698101 
	C38.350151,22.439770 41.163292,24.806076 41.989632,28.392889 
	C38.515366,30.254047 35.416443,31.914139 32.696312,33.814243 
	C33.075108,34.054256 33.010639,34.006416 33.038094,34.035851 
z"/>
</svg>