<svg version="1.1" id="Layer_1" xmlns="http://www.w3.org/2000/svg" xmlns:xlink="http://www.w3.org/1999/xlink" x="0px" y="0px"
	 width="100%" viewBox="0 0 64 64" enable-background="new 0 0 64 64" xml:space="preserve">
<path fill="#000000" opacity="1.000000" stroke="none" 
	d="
M48.004738,65.000000 
	C32.003754,65.000000 16.503887,65.000000 1.003018,65.000000 
	C1.002012,43.668194 1.002012,22.336390 1.001006,1.003438 
	C22.331619,1.002292 43.663239,1.002292 64.996140,1.001146 
	C64.997429,22.331430 64.997429,43.662861 64.998718,64.997147 
	C59.501953,65.000000 54.003902,65.000000 48.004738,65.000000 
M27.031631,49.463585 
	C27.373896,48.689724 27.716158,47.915867 28.864382,47.012886 
	C32.230713,47.033749 35.597046,47.054611 38.995667,47.880783 
	C38.848328,50.602798 38.987064,53.781475 42.377617,53.717564 
	C45.700630,53.654930 44.940269,50.356281 45.003487,48.040478 
	C45.021313,47.387321 45.069942,46.735008 45.828239,45.999676 
	C56.938744,41.659546 59.332436,28.787905 49.665874,21.143425 
	C45.488659,17.840012 40.767647,18.558901 36.005619,18.223976 
	C34.717468,12.569370 30.999758,9.508309 25.246626,8.002289 
	C26.200399,12.696722 25.739893,16.860252 21.888340,19.474737 
	C18.487930,21.782984 14.628989,23.415741 10.652863,25.515564 
	C11.561552,26.948952 12.858532,28.994839 14.000023,31.849850 
	C11.239328,39.150951 13.483178,43.424797 22.031015,47.779465 
	C23.723976,48.547802 25.416937,49.316139 27.362831,50.952900 
	C27.242126,52.600239 26.992857,54.250198 27.026306,55.894402 
	C27.106873,59.854843 27.305780,59.961823 31.731277,59.407501 
	C32.449509,50.209431 32.375065,50.060886 27.031631,49.463585 
z"/>
<path fill="#B9D8E8" opacity="1.000000" stroke="none" 
	d="
M21.962698,47.016300 
	C13.483178,43.424797 11.239328,39.150951 14.384024,31.263414 
	C18.166468,29.789936 21.558430,28.876736 24.967340,28.031931 
	C25.978550,27.781330 27.405050,28.101475 28.011608,27.512096 
	C30.812325,24.790703 33.390930,21.840727 36.049145,18.972679 
	C40.767647,18.558901 45.488659,17.840012 49.665874,21.143425 
	C59.332436,28.787905 56.938744,41.659546 45.190479,45.795082 
	C43.684536,44.445900 42.816353,43.301311 41.948166,42.156723 
	C41.155319,43.361816 40.348099,44.557827 39.577774,45.777149 
	C39.323936,46.178944 39.165459,46.640984 38.963379,47.075474 
	C35.597046,47.054611 32.230713,47.033749 28.143213,46.857277 
	C26.826853,44.009029 26.574980,40.890057 22.443829,42.471371 
	C22.280563,42.952435 22.105751,43.251904 22.087149,43.560783 
	C22.017879,44.710949 21.999918,45.864204 21.962698,47.016300 
z"/>
<path fill="#7269AF" opacity="1.000000" stroke="none" 
	d="
M36.027382,18.598328 
	C33.390930,21.840727 30.812325,24.790703 28.011608,27.512096 
	C27.405050,28.101475 25.978550,27.781330 24.967340,28.031931 
	C21.558430,28.876736 18.166468,29.789936 14.461768,30.858852 
	C12.858532,28.994839 11.561552,26.948952 10.652863,25.515564 
	C14.628989,23.415741 18.487930,21.782984 21.888340,19.474737 
	C25.739893,16.860252 26.200399,12.696722 25.246626,8.002289 
	C30.999758,9.508309 34.717468,12.569370 36.027382,18.598328 
z"/>
<path fill="#83B3CB" opacity="1.000000" stroke="none" 
	d="
M38.979523,47.478127 
	C39.165459,46.640984 39.323936,46.178944 39.577774,45.777149 
	C40.348099,44.557827 41.155319,43.361816 41.948166,42.156723 
	C42.816353,43.301311 43.684536,44.445900 44.828583,45.836395 
	C45.069942,46.735008 45.021313,47.387321 45.003487,48.040478 
	C44.940269,50.356281 45.700630,53.654930 42.377617,53.717564 
	C38.987064,53.781475 38.848328,50.602798 38.979523,47.478127 
z"/>
<path fill="#9FA6B7" opacity="1.000000" stroke="none" 
	d="
M27.075260,50.116688 
	C32.375065,50.060886 32.449509,50.209431 31.731277,59.407501 
	C27.305780,59.961823 27.106873,59.854843 27.026306,55.894402 
	C26.992857,54.250198 27.242126,52.600239 27.195070,50.493317 
	C27.027309,50.033733 27.075260,50.116688 27.075260,50.116688 
z"/>
<path fill="#615C9A" opacity="1.000000" stroke="none" 
	d="
M21.996857,47.397881 
	C21.999918,45.864204 22.017879,44.710949 22.087149,43.560783 
	C22.105751,43.251904 22.280563,42.952435 22.443829,42.471371 
	C26.574980,40.890057 26.826853,44.009029 27.740232,46.921837 
	C27.716158,47.915867 27.373896,48.689724 27.053446,49.790138 
	C27.075260,50.116688 27.027309,50.033733 27.068604,50.059105 
	C25.416937,49.316139 23.723976,48.547802 21.996857,47.397881 
z"/>
</svg>