<svg version="1.1" id="Layer_1" xmlns="http://www.w3.org/2000/svg" xmlns:xlink="http://www.w3.org/1999/xlink" x="0px" y="0px"
	 width="100%" viewBox="0 0 64 64" enable-background="new 0 0 64 64" xml:space="preserve">
<path fill="#000000" opacity="1.000000" stroke="none" 
	d="
M45.000957,65.000000 
	C30.000774,65.000000 15.500795,65.000000 1.000611,65.000000 
	C1.000407,43.666969 1.000407,22.333935 1.000204,1.000677 
	C22.333002,1.000451 43.666004,1.000451 64.999252,1.000226 
	C64.999504,22.332975 64.999504,43.665951 64.999756,64.999466 
	C58.500385,65.000000 52.000774,65.000000 45.000957,65.000000 
M53.555176,36.207615 
	C54.999016,35.334797 57.230133,34.789532 57.752743,33.533428 
	C60.241837,27.550812 57.079376,22.080652 50.738400,20.051699 
	C48.931057,19.473396 46.918198,18.205898 45.916206,16.660234 
	C39.831871,7.274597 24.023399,7.534656 20.120325,17.898169 
	C18.889032,21.167519 17.023563,23.365355 13.698433,25.216351 
	C7.951158,28.415678 8.946144,36.492310 15.119741,38.922596 
	C17.489161,39.855335 20.287386,39.715649 22.895197,40.022301 
	C27.692902,40.586479 29.751081,45.031097 27.060915,49.066280 
	C25.702976,48.386932 24.345039,47.707588 22.051786,46.560322 
	C22.383253,49.189583 22.593079,50.853970 22.791458,52.427551 
	C21.553856,52.996124 20.345312,53.551346 19.602419,53.892643 
	C21.011940,56.422874 22.119366,58.410816 22.941757,59.887093 
	C25.742851,59.887093 28.537487,59.887093 31.432041,59.887093 
	C31.280102,59.059120 31.075886,57.946262 30.876074,56.857399 
	C32.180820,56.023556 33.433254,55.223145 35.371029,53.984737 
	C33.305759,53.277977 32.120537,52.872379 30.960089,52.475258 
	C31.222721,50.484322 31.473867,48.580448 31.707106,46.812347 
	C32.944633,46.491543 35.023247,46.429722 35.187527,45.837177 
	C37.064686,39.066254 42.400032,39.975861 47.419064,39.969799 
	C50.178085,39.966469 52.938854,39.751442 52.986080,35.989822 
	C52.986080,35.989822 52.915825,35.985321 53.555176,36.207615 
M46.218857,44.452648 
	C41.776546,43.312481 38.800701,44.854958 37.450882,49.101017 
	C38.452858,51.034821 39.387810,52.839275 40.149727,54.309769 
	C44.947739,54.882061 48.168568,53.313129 49.583855,48.740906 
	C48.646427,47.505920 47.672386,46.222694 46.218857,44.452648 
z"/>
<path fill="#02005C" opacity="1.000000" stroke="none" 
	d="
M52.981831,35.919556 
	C52.938854,39.751442 50.178085,39.966469 47.419064,39.969799 
	C42.400032,39.975861 37.064686,39.066254 35.187527,45.837177 
	C35.023247,46.429722 32.944633,46.491543 31.707106,46.812347 
	C31.473867,48.580448 31.222721,50.484322 30.960089,52.475258 
	C32.120537,52.872379 33.305759,53.277977 35.371029,53.984737 
	C33.433254,55.223145 32.180820,56.023556 30.876074,56.857399 
	C31.075886,57.946262 31.280102,59.059120 31.432041,59.887093 
	C28.537487,59.887093 25.742851,59.887093 22.941757,59.887093 
	C22.119366,58.410816 21.011940,56.422874 19.602419,53.892643 
	C20.345312,53.551346 21.553856,52.996124 22.791458,52.427551 
	C22.593079,50.853970 22.383253,49.189583 22.051786,46.560322 
	C24.345039,47.707588 25.702976,48.386932 27.059811,49.059669 
	C29.751081,45.031097 27.692902,40.586479 22.895197,40.022301 
	C20.287386,39.715649 17.489161,39.855335 15.119741,38.922596 
	C8.946144,36.492310 7.951158,28.415678 13.698433,25.216351 
	C17.023563,23.365355 18.889032,21.167519 20.120325,17.898169 
	C24.023399,7.534656 39.831871,7.274597 45.916206,16.660234 
	C46.918198,18.205898 48.931057,19.473396 50.738400,20.051699 
	C57.079376,22.080652 60.241837,27.550812 57.752743,33.533428 
	C57.230133,34.789532 54.999016,35.334797 53.284355,35.729637 
	C53.927296,34.198212 54.841057,33.144764 55.601784,32.267742 
	C55.523674,26.348354 52.932800,23.114834 46.513702,23.833778 
	C45.778133,23.916162 44.488556,22.134052 44.015759,20.985878 
	C40.676529,12.876619 31.058403,10.817706 25.260313,17.510784 
	C23.012775,20.105251 22.315216,24.042439 20.688971,27.895306 
	C21.086683,27.824701 20.620951,27.960836 20.149967,27.982424 
	C16.790272,28.136400 13.850196,28.653057 13.978224,33.121071 
	C14.114326,37.870804 17.582943,36.952736 20.379942,36.974255 
	C29.522034,37.044605 38.665634,37.055786 47.807079,36.951763 
	C49.535690,36.932091 51.257099,36.279892 52.981831,35.919556 
z"/>
<path fill="#02005C" opacity="1.000000" stroke="none" 
	d="
M46.458599,44.696060 
	C47.672386,46.222694 48.646427,47.505920 49.583855,48.740906 
	C48.168568,53.313129 44.947739,54.882061 40.149727,54.309769 
	C39.387810,52.839275 38.452858,51.034821 37.450882,49.101017 
	C38.800701,44.854958 41.776546,43.312481 46.458599,44.696060 
z"/>
<path fill="#B6C4CF" opacity="1.000000" stroke="none" 
	d="
M52.983955,35.954689 
	C51.257099,36.279892 49.535690,36.932091 47.807079,36.951763 
	C38.665634,37.055786 29.522034,37.044605 20.379942,36.974255 
	C17.582943,36.952736 14.114326,37.870804 13.978224,33.121071 
	C13.850196,28.653057 16.790272,28.136400 20.149967,27.982424 
	C20.620951,27.960836 21.086683,27.824701 20.688971,27.895306 
	C22.315216,24.042439 23.012775,20.105251 25.260313,17.510784 
	C31.058403,10.817706 40.676529,12.876619 44.015759,20.985878 
	C44.488556,22.134052 45.778133,23.916162 46.513702,23.833778 
	C52.932800,23.114834 55.523674,26.348354 55.601784,32.267742 
	C54.841057,33.144764 53.927296,34.198212 52.964680,35.618492 
	C52.915825,35.985321 52.986080,35.989822 52.983955,35.954689 
z"/>
</svg>