<svg version="1.1" id="Layer_1" xmlns="http://www.w3.org/2000/svg" xmlns:xlink="http://www.w3.org/1999/xlink" x="0px" y="0px"
	 width="100%" viewBox="0 0 64 64" enable-background="new 0 0 64 64" xml:space="preserve">
<path fill="#000000" opacity="1.000000" stroke="none" 
	d="
M46.001724,65.000000 
	C30.667978,65.000000 15.834697,65.000000 1.000708,65.000000 
	C1.000000,64.667137 1.000000,64.334282 1.000000,64.001419 
	C1.000000,43.001492 1.000000,22.001566 1.000000,1.000820 
	C1.332785,1.000000 1.665571,1.000000 1.998356,1.000000 
	C22.998281,1.000000 43.998207,1.000000 64.999069,1.000000 
	C65.000000,1.332710 65.000000,1.665421 65.000000,1.998131 
	C65.000000,22.998056 65.000000,43.997982 65.000000,64.998955 
	C58.834064,65.000000 52.668129,65.000000 46.001724,65.000000 
M19.988894,19.335855 
	C19.172026,15.228424 16.191572,13.342220 12.654455,11.567098 
	C11.851410,16.895546 14.690036,19.845154 20.755411,20.463430 
	C17.376616,24.032824 15.004982,28.148653 16.087234,33.164566 
	C17.034063,37.552834 18.726629,41.780197 19.300535,46.010231 
	C14.371074,46.578632 12.062327,49.191875 12.479372,53.731026 
	C17.295198,53.728642 19.849232,51.043606 20.462578,45.242363 
	C24.030674,48.623230 28.145725,50.995304 33.162491,49.912899 
	C37.550682,48.966122 41.778290,47.275055 46.009930,46.701199 
	C46.605770,51.895061 49.644573,54.371277 53.922619,53.148987 
	C52.474224,48.938972 49.755886,46.542713 45.239655,45.540154 
	C48.620060,41.971127 50.996105,37.856560 49.912781,32.838184 
	C48.965298,28.449083 47.273312,24.220697 46.699436,19.989841 
	C51.628876,19.421268 53.937546,16.808018 53.520493,12.268893 
	C48.704445,12.271309 46.150440,14.956380 45.537502,20.757673 
	C41.968773,17.375370 37.851208,15.005283 32.834621,16.087313 
	C28.445509,17.034002 24.217577,18.727970 19.988894,19.335855 
M31.006933,5.877516 
	C30.989477,13.806018 30.989477,13.806018 34.981129,13.444445 
	C34.981129,11.180502 35.225815,8.851495 34.912132,6.600290 
	C34.600075,4.360752 33.464207,2.839453 31.006933,5.877516 
M12.851767,31.369278 
	C10.084174,31.212906 7.316581,31.056534 4.104160,30.875029 
	C4.185387,32.498611 4.243512,33.660419 4.310353,34.996460 
	C7.006253,34.996460 9.317997,34.949409 11.626964,35.009365 
	C14.055387,35.072426 14.591203,34.076260 12.851767,31.369278 
M61.019733,34.943081 
	C63.163677,32.536152 61.638309,31.400618 59.401199,31.087835 
	C57.150162,30.773106 54.820805,31.018579 52.525764,31.018579 
	C52.199535,31.417753 51.873306,31.816929 51.547081,32.216103 
	C52.580940,33.143536 53.483253,34.558674 54.680191,34.881527 
	C56.379967,35.340012 58.296535,34.994766 61.019733,34.943081 
M33.993614,52.544090 
	C31.935949,51.408722 30.933172,51.929955 30.990887,54.365192 
	C31.048853,56.811020 31.003633,59.259293 31.003633,61.728687 
	C32.560783,61.728687 33.620014,61.728687 35.110641,61.728687 
	C34.942417,58.689629 34.789200,55.921700 33.993614,52.544090 
z"/>
<path fill="#EFCC00" opacity="1.000000" stroke="none" 
	d="
M46.076836,45.912792 
	C41.778290,47.275055 37.550682,48.966122 33.162491,49.912899 
	C28.145725,50.995304 24.030674,48.623230 20.232206,45.619553 
	C20.001835,45.996746 20.089756,46.078644 20.089756,46.078644 
	C18.726629,41.780197 17.034063,37.552834 16.087234,33.164566 
	C15.004982,28.148653 17.376616,24.032824 20.378000,20.233673 
	C20.000589,20.003916 19.918440,20.091818 19.918440,20.091818 
	C24.217577,18.727970 28.445509,17.034002 32.834621,16.087313 
	C37.851208,15.005283 41.968773,17.375370 45.767830,20.380449 
	C45.998158,20.003225 45.910225,19.921312 45.910225,19.921312 
	C47.273312,24.220697 48.965298,28.449083 49.912781,32.838184 
	C50.996105,37.856560 48.620060,41.971127 45.617203,45.770466 
	C45.994751,46.000778 46.076836,45.912792 46.076836,45.912792 
z"/>
<path fill="#EFCC00" opacity="1.000000" stroke="none" 
	d="
M46.039101,20.047203 
	C46.150440,14.956380 48.704445,12.271309 53.520493,12.268893 
	C53.937546,16.808018 51.628876,19.421268 46.304832,19.955578 
	C45.910225,19.921312 45.998158,20.003225 46.039101,20.047203 
z"/>
<path fill="#EFCC00" opacity="1.000000" stroke="none" 
	d="
M19.960901,45.952770 
	C19.849232,51.043606 17.295198,53.728642 12.479372,53.731026 
	C12.062327,49.191875 14.371074,46.578632 19.695145,46.044437 
	C20.089756,46.078644 20.001835,45.996746 19.960901,45.952770 
z"/>
<path fill="#EFCC00" opacity="1.000000" stroke="none" 
	d="
M31.031813,5.428161 
	C33.464207,2.839453 34.600075,4.360752 34.912132,6.600290 
	C35.225815,8.851495 34.981129,11.180502 34.981129,13.444445 
	C30.989477,13.806018 30.989477,13.806018 31.031813,5.428161 
z"/>
<path fill="#EFCC00" opacity="1.000000" stroke="none" 
	d="
M20.044592,19.962898 
	C14.690036,19.845154 11.851410,16.895546 12.654455,11.567098 
	C16.191572,13.342220 19.172026,15.228424 19.953667,19.713837 
	C19.918440,20.091818 20.000589,20.003916 20.044592,19.962898 
z"/>
<path fill="#EFCC00" opacity="1.000000" stroke="none" 
	d="
M13.156898,31.690294 
	C14.591203,34.076260 14.055387,35.072426 11.626964,35.009365 
	C9.317997,34.949409 7.006253,34.996460 4.310353,34.996460 
	C4.243512,33.660419 4.185387,32.498611 4.104160,30.875029 
	C7.316581,31.056534 10.084174,31.212906 13.156898,31.690294 
z"/>
<path fill="#EFCC00" opacity="1.000000" stroke="none" 
	d="
M60.570099,34.968014 
	C58.296535,34.994766 56.379967,35.340012 54.680191,34.881527 
	C53.483253,34.558674 52.580940,33.143536 51.547081,32.216103 
	C51.873306,31.816929 52.199535,31.417753 52.525764,31.018579 
	C54.820805,31.018579 57.150162,30.773106 59.401199,31.087835 
	C61.638309,31.400618 63.163677,32.536152 60.570099,34.968014 
z"/>
<path fill="#EFCC00" opacity="1.000000" stroke="none" 
	d="
M45.950787,46.041855 
	C49.755886,46.542713 52.474224,48.938972 53.922619,53.148987 
	C49.644573,54.371277 46.605770,51.895061 46.043381,46.306995 
	C46.076836,45.912792 45.994751,46.000778 45.950787,46.041855 
z"/>
<path fill="#EFCC00" opacity="1.000000" stroke="none" 
	d="
M34.314800,52.848930 
	C34.789200,55.921700 34.942417,58.689629 35.110641,61.728687 
	C33.620014,61.728687 32.560783,61.728687 31.003633,61.728687 
	C31.003633,59.259293 31.048853,56.811020 30.990887,54.365192 
	C30.933172,51.929955 31.935949,51.408722 34.314800,52.848930 
z"/>
</svg>