<svg version="1.1" id="Layer_1" xmlns="http://www.w3.org/2000/svg" xmlns:xlink="http://www.w3.org/1999/xlink" x="0px" y="0px"
	 width="100%" viewBox="0 0 64 64" enable-background="new 0 0 64 64" xml:space="preserve">
<path fill="#020201" opacity="1.000000" stroke="none" 
	d="
M35.000000,65.000000 
	C23.355185,65.000000 12.210369,65.000000 1.032777,65.000000 
	C1.032777,43.730305 1.032777,22.460548 1.032777,1.095395 
	C22.227612,1.095395 43.455791,1.095395 64.841988,1.095395 
	C64.841988,22.332405 64.841988,43.666084 64.841988,65.000000 
	C55.128159,65.000000 45.314079,65.000000 35.000000,65.000000 
M38.586433,38.300053 
	C38.586433,38.300053 39.066402,38.310051 39.066402,38.310051 
	C39.066402,38.310051 39.504700,38.114220 40.158230,38.432484 
	C41.180637,38.224262 42.275078,38.183823 43.213863,37.780815 
	C49.711765,34.991344 50.055138,31.105434 44.315197,26.711159 
	C43.440510,26.041527 42.820393,25.011574 42.162624,24.091049 
	C38.756180,19.323832 34.066410,18.641779 29.313553,22.062492 
	C28.092081,22.941605 26.511127,23.748552 25.064690,23.805092 
	C21.216618,23.955513 18.676346,25.632166 17.980438,29.370995 
	C17.247583,33.308327 18.821026,36.612240 22.881874,37.229156 
	C27.901512,37.991726 33.060143,37.839359 38.586433,38.300053 
M32.728901,41.004810 
	C31.516626,41.428711 30.304350,41.852608 29.092075,42.276508 
	C29.195555,42.773273 29.299036,43.270039 29.402515,43.766804 
	C31.900702,43.888027 34.398888,44.009247 36.001034,44.086990 
	C35.515316,44.517769 34.672714,45.265064 33.830112,46.012360 
	C34.184727,46.647194 34.539341,47.282032 34.893955,47.916870 
	C36.649185,47.641045 38.668831,47.788971 40.056049,46.923370 
	C40.832779,46.438698 41.222942,43.676678 40.613083,43.001701 
	C39.603863,41.884716 37.673687,41.534515 36.075535,41.043617 
	C35.321865,40.812119 34.438240,41.003712 32.728901,41.004810 
z"/>
<path fill="#F9F8F8" opacity="1.000000" stroke="none" 
	d="
M38.158722,38.082306 
	C33.060143,37.839359 27.901512,37.991726 22.881874,37.229156 
	C18.821026,36.612240 17.247583,33.308327 17.980438,29.370995 
	C18.676346,25.632166 21.216618,23.955513 25.064690,23.805092 
	C26.511127,23.748552 28.092081,22.941605 29.313553,22.062492 
	C34.066410,18.641779 38.756180,19.323832 42.162624,24.091049 
	C42.820393,25.011574 43.440510,26.041527 44.315197,26.711159 
	C50.055138,31.105434 49.711765,34.991344 43.213863,37.780815 
	C42.275078,38.183823 41.180637,38.224262 39.518784,37.881893 
	C40.273907,36.413773 41.668476,35.496243 43.344139,34.379429 
	C43.049915,32.401939 42.887234,30.237320 41.731239,29.002914 
	C41.121586,28.351913 38.779064,29.323713 37.218948,29.562803 
	C37.264015,30.027328 37.309082,30.491854 37.354153,30.956379 
	C39.509834,30.975866 42.910267,29.251175 41.364128,33.891930 
	C35.661713,33.959633 30.411425,33.959633 25.161139,33.959633 
	C25.172113,34.667404 25.183088,35.375172 25.194063,36.082943 
	C29.047503,36.082943 32.903931,36.011223 36.750698,36.171413 
	C37.245705,36.192028 37.690609,37.415852 38.158722,38.082306 
z"/>
<path fill="#231714" opacity="1.000000" stroke="none" 
	d="
M33.171200,41.004204 
	C34.438240,41.003712 35.321865,40.812119 36.075535,41.043617 
	C37.673687,41.534515 39.603863,41.884716 40.613083,43.001701 
	C41.222942,43.676678 40.832779,46.438698 40.056049,46.923370 
	C38.668831,47.788971 36.649185,47.641045 34.893955,47.916870 
	C34.539341,47.282032 34.184727,46.647194 33.830112,46.012360 
	C34.672714,45.265064 35.515316,44.517769 36.001034,44.086990 
	C34.398888,44.009247 31.900702,43.888027 29.402515,43.766804 
	C29.299036,43.270039 29.195555,42.773273 29.092075,42.276508 
	C30.304350,41.852608 31.516626,41.428711 33.171200,41.004204 
z"/>
<path fill="#352C29" opacity="1.000000" stroke="none" 
	d="
M38.372578,38.191177 
	C37.690609,37.415852 37.245705,36.192028 36.750698,36.171413 
	C32.903931,36.011223 29.047503,36.082943 25.194063,36.082943 
	C25.183088,35.375172 25.172113,34.667404 25.161139,33.959633 
	C30.411425,33.959633 35.661713,33.959633 41.664200,34.099762 
	C42.631947,34.352833 42.847496,34.465771 43.063049,34.578712 
	C41.668476,35.496243 40.273907,36.413773 39.192017,37.722763 
	C39.504700,38.114220 39.066402,38.310051 39.066402,38.310051 
	C39.066402,38.310051 38.586433,38.300053 38.372578,38.191177 
z"/>
<path fill="#352C29" opacity="1.000000" stroke="none" 
	d="
M42.116333,34.032063 
	C42.910267,29.251175 39.509834,30.975866 37.354153,30.956379 
	C37.309082,30.491854 37.264015,30.027328 37.218948,29.562803 
	C38.779064,29.323713 41.121586,28.351913 41.731239,29.002914 
	C42.887234,30.237320 43.049915,32.401939 43.344139,34.379429 
	C42.847496,34.465771 42.631947,34.352833 42.116333,34.032063 
z"/>
</svg>